<?xml version="1.0" encoding="UTF-8"?>
<svg id="Layer_1" data-name="Layer 1" xmlns="http://www.w3.org/2000/svg" viewBox="0 0 595.28 198.43">
  <defs>
    <style>
      .cls-1 {
        fill: #05080f;
      }
    </style>
  </defs>
  <g>
    <path class="cls-1" d="M264.67,69.93c5.67,0,10.45.71,14.33,2.13,3.88,1.42,6.97,3.41,9.29,5.96,2.31,2.55,3.97,5.65,4.97,9.29.99,3.64,1.49,7.64,1.49,11.99v44.98c-2.65.56-6.65,1.25-11.99,2.06-5.34.8-11.37,1.21-18.09,1.21-4.45,0-8.51-.42-12.2-1.28-3.69-.85-6.84-2.22-9.44-4.11-2.6-1.89-4.64-4.35-6.1-7.38-1.47-3.03-2.2-6.76-2.2-11.21s.83-7.85,2.48-10.78c1.65-2.93,3.9-5.32,6.74-7.17,2.84-1.84,6.12-3.17,9.86-3.97,3.74-.8,7.64-1.2,11.71-1.2,1.89,0,3.88.12,5.96.35,2.08.24,4.3.64,6.67,1.21v-2.84c0-1.99-.24-3.88-.71-5.67-.47-1.8-1.3-3.38-2.48-4.75-1.18-1.37-2.74-2.43-4.68-3.19-1.94-.76-4.38-1.14-7.31-1.14-3.97,0-7.62.28-10.92.85-3.31.57-6.01,1.23-8.09,1.99l-2.13-13.9c2.18-.76,5.34-1.51,9.51-2.27,4.16-.76,8.61-1.14,13.34-1.14ZM266.09,133.91c5.3,0,9.31-.28,12.06-.85v-19.01c-.95-.29-2.32-.57-4.11-.85-1.8-.28-3.78-.43-5.96-.43-1.89,0-3.81.14-5.74.43-1.94.28-3.69.8-5.25,1.56-1.56.76-2.81,1.82-3.76,3.19-.95,1.37-1.42,3.1-1.42,5.18,0,4.07,1.28,6.88,3.83,8.44,2.55,1.56,6.01,2.34,10.36,2.34Z"/>
    <path class="cls-1" d="M332.06,50.06c0,3.22-1.04,5.77-3.12,7.66-2.08,1.89-4.54,2.84-7.38,2.84s-5.44-.94-7.52-2.84c-2.08-1.89-3.12-4.44-3.12-7.66s1.04-5.91,3.12-7.8c2.08-1.89,4.59-2.84,7.52-2.84s5.29.95,7.38,2.84c2.08,1.89,3.12,4.49,3.12,7.8ZM330.21,145.97h-17.17v-74.2h17.17v74.2Z"/>
    <path class="cls-1" d="M371.18,145.97c-4.75-9.74-9.62-20.93-14.6-33.55-4.99-12.63-9.52-26.18-13.6-40.65h18.31c1.04,4.16,2.25,8.63,3.63,13.41,1.38,4.78,2.85,9.56,4.42,14.33,1.57,4.78,3.18,9.41,4.84,13.9,1.66,4.5,3.21,8.54,4.63,12.13,1.42-3.59,2.94-7.63,4.56-12.13,1.61-4.49,3.21-9.12,4.77-13.9,1.57-4.77,3.06-9.55,4.49-14.33,1.42-4.78,2.66-9.24,3.7-13.41h17.74c-4.08,14.47-8.62,28.02-13.6,40.65-4.99,12.63-9.85,23.81-14.6,33.55h-14.68Z"/>
    <path class="cls-1" d="M418.03,109.23c0-6.53.97-12.25,2.91-17.17,1.94-4.92,4.52-9.01,7.73-12.27,3.21-3.26,6.9-5.72,11.07-7.38,4.16-1.65,8.42-2.48,12.77-2.48,10.21,0,18.18,3.17,23.91,9.51,5.72,6.34,8.58,15.8,8.58,28.37,0,.95-.03,2.01-.07,3.19-.05,1.18-.12,2.25-.21,3.19h-48.95c.47,5.96,2.58,10.57,6.31,13.83,3.73,3.26,9.15,4.89,16.24,4.89,4.16,0,7.97-.38,11.42-1.14,3.45-.75,6.17-1.56,8.16-2.41l2.27,14.04c-.95.47-2.25.97-3.9,1.49-1.66.52-3.55.99-5.68,1.42-2.13.43-4.42.78-6.88,1.06-2.46.28-4.97.43-7.52.43-6.53,0-12.2-.97-17.03-2.91-4.82-1.94-8.79-4.63-11.92-8.09-3.12-3.45-5.44-7.52-6.95-12.2-1.51-4.68-2.27-9.81-2.27-15.39ZM467.83,101.57c0-2.36-.33-4.61-.99-6.74-.66-2.13-1.63-3.97-2.91-5.53-1.28-1.56-2.84-2.79-4.68-3.69-1.84-.9-4.04-1.35-6.6-1.35s-4.96.5-6.95,1.49c-1.99.99-3.67,2.29-5.04,3.9-1.37,1.61-2.44,3.45-3.19,5.53-.76,2.08-1.28,4.21-1.56,6.39h31.92Z"/>
    <path class="cls-1" d="M500.32,74.18c3.31-.94,7.61-1.84,12.91-2.7,5.29-.85,11.16-1.28,17.59-1.28,6.05,0,11.11.83,15.18,2.48,4.07,1.66,7.31,3.97,9.72,6.95,2.41,2.98,4.11,6.58,5.11,10.78.99,4.21,1.49,8.82,1.49,13.83v41.71h-17.17v-39.02c0-3.97-.26-7.35-.78-10.14-.52-2.79-1.37-5.06-2.56-6.81-1.18-1.75-2.79-3.03-4.82-3.83-2.04-.8-4.52-1.21-7.45-1.21-2.18,0-4.45.14-6.81.42-2.37.28-4.11.52-5.25.71v59.87h-17.17v-71.79Z"/>
  </g>
  <g>
    <path class="cls-1" d="M157.08,121.92c2.79,0,5.49.5,8.03,1.43,3.98-4.6,6.13-9.64,6.13-14.81,0-8.53-5.76-16.74-16.21-23.12-11.19-6.84-26.15-10.6-42.14-10.6h0c-15.99,0-30.95,3.77-42.14,10.6-10.45,6.39-16.21,14.59-16.21,23.12,0,5.17,2.14,10.21,6.13,14.81,2.54-.92,5.24-1.43,8.03-1.43,6.28,0,12.18,2.44,16.64,6.89,3.07,3.08,5.18,6.92,6.19,11.06,6.72,1.56,13.92,2.41,21.36,2.41s14.64-.85,21.36-2.41c1.01-4.14,3.12-7.98,6.19-11.06,4.46-4.45,10.37-6.89,16.65-6.89ZM112.88,102.31c-7.22,0-13.09-5.87-13.09-13.09h26.19c0,7.22-5.88,13.09-13.09,13.09Z"/>
    <path class="cls-1" d="M67.53,79.25c1.26-.77,2.58-1.48,3.92-2.17l-.05-.04c-3.31-2.49-7.2-3.69-11.05-3.69-5.6,0-11.12,2.53-14.73,7.34l-1.55,2.06,10.42,7.84c3.23-4.18,7.61-8.01,13.05-11.34Z"/>
    <path class="cls-1" d="M54.6,126.62c-3.49-4.49-5.66-9.38-6.35-14.49-.16-1.19-.26-2.39-.26-3.6,0-5.97,1.99-11.7,5.74-16.93h-1.35c-10.16,0-18.43,8.25-18.43,18.4v2.58h13.73c-3.58,2.97-5.89,7.09-6.51,11.72-.65,4.88.63,9.72,3.62,13.63l1.15,1.5c1.05-3.99,3.11-7.65,6.1-10.64.8-.8,1.66-1.51,2.55-2.18Z"/>
    <path class="cls-1" d="M171.29,90.59l10.42-7.84-1.55-2.06c-3.61-4.81-9.14-7.34-14.74-7.34-3.85,0-7.74,1.2-11.05,3.69l-.05.04c1.34.7,2.66,1.4,3.92,2.17,5.44,3.33,9.82,7.16,13.05,11.34Z"/>
    <path class="cls-1" d="M191.81,110.01c0-10.15-8.27-18.4-18.43-18.4h-1.35c3.75,5.23,5.74,10.96,5.74,16.93,0,1.21-.1,2.41-.26,3.6-.69,5.11-2.86,10-6.35,14.49.89.67,1.75,1.38,2.55,2.18,2.99,2.99,5.05,6.65,6.1,10.64l1.15-1.5c2.99-3.91,4.27-8.75,3.62-13.63-.62-4.63-2.93-8.75-6.51-11.71h13.73v-2.59Z"/>
    <path class="cls-1" d="M90.72,70.6c10.15,0,18.42-8.27,18.42-18.42s-8.27-18.42-18.42-18.42-18.42,8.26-18.42,18.42,8.26,18.42,18.42,18.42ZM90.72,42.08s.06,0,.09,0c-1.31,1.29-2.13,3.07-2.13,5.06,0,3.91,3.17,7.08,7.08,7.08,1.99,0,3.78-.82,5.06-2.14,0,.03,0,.06,0,.1,0,5.58-4.52,10.1-10.1,10.1s-10.1-4.52-10.1-10.1,4.52-10.1,10.1-10.1Z"/>
    <path class="cls-1" d="M135.04,70.6c10.15,0,18.42-8.27,18.42-18.42s-8.27-18.42-18.42-18.42-18.42,8.26-18.42,18.42,8.26,18.42,18.42,18.42ZM135.04,42.08s.06,0,.09,0c-1.31,1.29-2.13,3.07-2.13,5.06,0,3.91,3.17,7.08,7.08,7.08,1.99,0,3.77-.82,5.06-2.14,0,.03,0,.06,0,.1,0,5.58-4.52,10.1-10.1,10.1s-10.1-4.52-10.1-10.1,4.52-10.1,10.1-10.1Z"/>
    <path class="cls-1" d="M68.67,127.03c-10.17,0-18.41,8.24-18.41,18.41s8.24,18.41,18.41,18.41c2.14,0,4.18-.38,6.08-1.05-.18-.16-.35-.32-.52-.49-5.35-5.35-7.15-12.21-4.03-15.34,3.12-3.12,9.99-1.32,15.34,4.03.17.17.33.35.49.53.67-1.91,1.05-3.95,1.05-6.09,0-10.17-8.24-18.41-18.41-18.41Z"/>
    <path class="cls-1" d="M157.11,127.03c-10.17,0-18.41,8.24-18.41,18.41,0,2.14.38,4.18,1.05,6.09.17-.18.32-.35.5-.53,5.35-5.35,12.21-7.15,15.34-4.03,3.12,3.12,1.32,9.99-4.03,15.34-.17.17-.35.33-.52.49,1.91.67,3.95,1.05,6.08,1.05,10.17,0,18.41-8.24,18.41-18.41s-8.24-18.41-18.41-18.41Z"/>
  </g>
</svg>