<svg xmlns="http://www.w3.org/2000/svg" xml:space="preserve" viewBox="36.3 35.6 157.8 130.2"><path fill="#fff" d="M159.4 123.8c2.8 0 5.5.5 8 1.4 4-4.6 6.1-9.6 6.1-14.8 0-8.5-5.8-16.7-16.2-23.1-11.2-6.8-26.2-10.6-42.1-10.6-16 0-31 3.8-42.1 10.6-10.5 6.4-16.2 14.6-16.2 23.1 0 5.2 2.1 10.2 6.1 14.8 2.5-.9 5.2-1.4 8-1.4 6.3 0 12.2 2.4 16.6 6.9 3.1 3.1 5.2 6.9 6.2 11.1 6.7 1.6 13.9 2.4 21.4 2.4 7.4 0 14.6-.8 21.4-2.4 1-4.1 3.1-8 6.2-11.1 4.4-4.5 10.3-6.9 16.6-6.9zm-44.2-19.6c-7.2 0-13.1-5.9-13.1-13.1h26.2c0 7.2-5.9 13.1-13.1 13.1z" class="st0"/><path fill="#fff" d="M69.9 81.1c1.3-.8 2.6-1.5 3.9-2.2h-.1c-3.3-2.5-7.2-3.7-11.1-3.7-5.6 0-11.1 2.5-14.7 7.3l-1.5 2.1 10.4 7.8c3.2-4.2 7.6-8 13.1-11.3z" class="st1"/><path fill="#fff" d="M56.9 128.5c-3.5-4.5-5.7-9.4-6.3-14.5-.2-1.2-.3-2.4-.3-3.6 0-6 2-11.7 5.7-16.9h-1.3c-10.2 0-18.4 8.3-18.4 18.4v2.6H50c-3.6 3-5.9 7.1-6.5 11.7-.7 4.9.6 9.7 3.6 13.6l1.1 1.5c1-4 3.1-7.6 6.1-10.6.9-.9 1.7-1.6 2.6-2.2z" class="st2"/><path fill="#fff" d="m173.6 92.4 10.4-7.8-1.5-2.1c-3.6-4.8-9.1-7.3-14.7-7.3-3.9 0-7.7 1.2-11.1 3.7h-.1c1.3.7 2.7 1.4 3.9 2.2 5.5 3.3 9.9 7.1 13.1 11.3z" class="st3"/><path fill="#fff" d="M194.1 111.9c0-10.2-8.3-18.4-18.4-18.4h-1.3c3.8 5.2 5.7 11 5.7 16.9 0 1.2-.1 2.4-.3 3.6-.7 5.1-2.9 10-6.3 14.5.9.7 1.8 1.4 2.6 2.2 3 3 5.1 6.6 6.1 10.6l1.1-1.5c3-3.9 4.3-8.8 3.6-13.6-.6-4.6-2.9-8.8-6.5-11.7h13.7v-2.6z" class="st4"/><path fill="#fff" d="M93.1 72.4c10.2 0 18.4-8.3 18.4-18.4 0-10.2-8.3-18.4-18.4-18.4-10.2 0-18.4 8.3-18.4 18.4-.1 10.2 8.2 18.4 18.4 18.4zm0-28.5c-1.2 1.3-2 3.1-2 5.1 0 3.9 3.2 7.1 7.1 7.1 2 0 3.8-.8 5.1-2.1v.1c0 5.6-4.5 10.1-10.1 10.1C87.5 64.1 83 59.6 83 54s4.5-10.1 10.1-10.1z" class="st5"/><path fill="#fff" d="M137.4 72.4c10.2 0 18.4-8.3 18.4-18.4 0-10.2-8.3-18.4-18.4-18.4-10.2 0-18.4 8.3-18.4 18.4 0 10.2 8.2 18.4 18.4 18.4zm0-28.5c-1.2 1.3-2 3.1-2 5.1 0 3.9 3.2 7.1 7.1 7.1 2 0 3.8-.8 5.1-2.1v.1c0 5.6-4.5 10.1-10.1 10.1s-10.1-4.5-10.1-10.1c-.1-5.7 4.4-10.2 10-10.2z" class="st6"/><path fill="#fff" d="M71 128.9c-10.2 0-18.4 8.2-18.4 18.4s8.2 18.4 18.4 18.4c2.1 0 4.2-.4 6.1-1.1-.2-.2-.4-.3-.5-.5-5.3-5.3-7.2-12.2-4-15.3 3.1-3.1 10-1.3 15.3 4 .2.2.3.4.5.5.7-1.9 1.1-3.9 1.1-6.1-.1-10.1-8.3-18.3-18.5-18.3z" class="st7"/><path fill="#fff" d="M159.5 128.9c-10.2 0-18.4 8.2-18.4 18.4 0 2.1.4 4.2 1.1 6.1.2-.2.3-.4.5-.5 5.3-5.3 12.2-7.2 15.3-4 3.1 3.1 1.3 10-4 15.3l-.5.5c1.9.7 3.9 1.1 6.1 1.1 10.2 0 18.4-8.2 18.4-18.4-.1-10.3-8.4-18.5-18.5-18.5z" class="st8"/></svg>
