<svg xmlns="http://www.w3.org/2000/svg" viewBox="30 35 170 135"><defs><linearGradient id="a" gradientUnits="userSpaceOnUse" x1="82.35" y1="154.79" x2="153.69" y2="58.35"><stop offset="0" stop-color="#FF7700"/><stop offset=".742" stop-color="#FF3554"/></linearGradient><linearGradient id="b" gradientUnits="userSpaceOnUse" x1="33.05" y1="118.32" x2="104.39" y2="21.88"><stop offset="0" stop-color="#FF7700"/><stop offset=".742" stop-color="#FF3554"/></linearGradient><linearGradient id="c" gradientUnits="userSpaceOnUse" x1="41.52" y1="124.59" x2="112.86" y2="28.15"><stop offset="0" stop-color="#FF7700"/><stop offset=".742" stop-color="#FF3554"/></linearGradient><linearGradient id="d" gradientUnits="userSpaceOnUse" x1="104.31" y1="171.04" x2="175.65" y2="74.6"><stop offset="0" stop-color="#FF7700"/><stop offset=".742" stop-color="#FF3554"/></linearGradient><linearGradient id="e" gradientUnits="userSpaceOnUse" x1="126.46" y1="187.42" x2="197.8" y2="90.98"><stop offset="0" stop-color="#FF7700"/><stop offset=".742" stop-color="#FF3554"/></linearGradient><linearGradient id="f" gradientUnits="userSpaceOnUse" x1="41.09" y1="124.27" x2="112.43" y2="27.83"><stop offset="0" stop-color="#FF7700"/><stop offset=".742" stop-color="#FF3554"/></linearGradient><linearGradient id="g" gradientUnits="userSpaceOnUse" x1="69.74" y1="145.46" x2="141.08" y2="49.02"><stop offset="0" stop-color="#FF7700"/><stop offset=".742" stop-color="#FF3554"/></linearGradient><linearGradient id="h" gradientUnits="userSpaceOnUse" x1="71.1" y1="146.47" x2="142.44" y2="50.03"><stop offset="0" stop-color="#FF7700"/><stop offset=".742" stop-color="#FF3554"/></linearGradient><linearGradient id="i" gradientUnits="userSpaceOnUse" x1="128.6" y1="189" x2="199.94" y2="92.56"><stop offset="0" stop-color="#FF7700"/><stop offset=".742" stop-color="#FF3554"/></linearGradient></defs><path fill="url(#a)" d="M159.4 123.8c2.8 0 5.5.5 8 1.4 4-4.6 6.1-9.6 6.1-14.8 0-8.5-5.8-16.7-16.2-23.1-11.2-6.8-26.2-10.6-42.1-10.6h0c-16 0-31 3.8-42.1 10.6-10.5 6.4-16.2 14.6-16.2 23.1 0 5.2 2.1 10.2 6.1 14.8 2.5-.9 5.2-1.4 8-1.4 6.3 0 12.2 2.4 16.6 6.9 3.1 3.1 5.2 6.9 6.2 11.1 6.7 1.6 13.9 2.4 21.4 2.4 7.4 0 14.6-.8 21.4-2.4 1-4.1 3.1-8 6.2-11.1 4.4-4.5 10.3-7.1 16.6-7.1zM115.2 104.2c-7.2 0-13.1-5.9-13.1-13.1h26.2c0 7.2-5.9 13.1-13.1 13.1z"/><path fill="url(#b)" d="M69.9 81.1c1.3-.8 2.6-1.5 3.9-2.2l-.1 0c-3.3-2.5-7.2-3.7-11.1-3.7-5.6 0-11.1 2.5-14.7 7.3l-1.5 2.1 10.4 7.8c5.5-3.3 9.9-7.1 15.1-10.5z"/><path fill="url(#c)" d="M56.9 128.5c-3.5-4.5-5.7-9.4-6.3-14.5-.2-1.2-.3-2.4-.3-3.6 0-6 2-11.7 5.7-16.9h-1.3c-10.2 0-18.4 8.3-18.4 18.4v2.6l13.7 0c-3.6 3-5.9 7.1-6.5 11.7-.7 4.9.6 9.7 3.6 13.6l1.1 1.5c1-4 3.1-7.6 6.1-10.6.8.7 1.7 1.4 2.5 2.2z"/><path fill="url(#d)" d="M173.6 92.4l10.4-7.8-1.5-2.1c-3.6-4.8-9.1-7.3-14.7-7.3-3.9 0-7.7 1.2-11.1 3.7l-.1 0c1.3.7 2.7 1.4 3.9 2.2 5.2-3.3 9.6-7.1 15.1-10.5z"/><path fill="url(#e)" d="M194.1 111.9c0-10.2-8.3-18.4-18.4-18.4h-1.3c3.8 5.2 5.7 11 5.7 16.9 0 1.2-.1 2.4-.3 3.6-.7 5.1-2.9 10-6.3 14.5.9.7 1.8 1.4 2.6 2.2 3 3 5.1 6.6 6.1 10.6l1.1-1.5c3-3.9 4.3-8.8 3.6-13.6-.6-4.6-2.9-8.8-6.5-11.7l13.7 0v-2.6z"/><path fill="url(#f)" d="M93.1 72.4c10.2 0 18.4-8.3 18.4-18.4 0-10.2-8.3-18.4-18.4-18.4-10.2 0-18.4 8.3-18.4 18.4 0 10.1 8.2 18.4 18.4 18.4zM93.1 43.9c-1.2 1.3-2 3.1-2 5.1 0 3.9 3.2 7.1 7.1 7.1 2 0 3.8-.8 5.1-2.1 0 0 0 .1 0 .1 0 5.6-4.5 10.1-10.1 10.1-5.6 0-10.1-4.5-10.1-10.1 0-5.6 4.5-10.1 10.1-10.1z"/><path fill="url(#g)" d="M137.4 72.4c10.2 0 18.4-8.3 18.4-18.4 0-10.2-8.3-18.4-18.4-18.4-10.2 0-18.4 8.3-18.4 18.4 0 10.1 8.2 18.4 18.4 18.4zM137.4 43.9c-1.2 1.3-2 3.1-2 5.1 0 3.9 3.2 7.1 7.1 7.1 2 0 3.8-.8 5.1-2.1 0 0 0 .1 0 .1 0 5.6-4.5 10.1-10.1 10.1-5.6 0-10.1-4.5-10.1-10.1 0-5.6 4.5-10.1 10.1-10.1z"/><path fill="url(#h)" d="M71 128.9c-10.2 0-18.4 8.2-18.4 18.4 0 10.2 8.2 18.4 18.4 18.4 2.1 0 4.2-.4 6.1-1.1-.2-.2-.4-.3-.5-.5-5.3-5.3-7.2-12.2-4-15.3 3.1-3.1 10-1.3 15.3 4 .2.2.3.4.5.5.7-1.9 1.1-3.9 1.1-6.1 0-10.2-8.2-18.4-18.4-18.4z"/><path fill="url(#i)" d="M159.5 128.9c-10.2 0-18.4 8.2-18.4 18.4 0 2.1.4 4.2 1.1 6.1.2-.2.3-.4.5-.5 5.3-5.3 12.2-7.2 15.3-4 3.1 3.1 1.3 10-4 15.3-.2.2-.3.3-.5.5 1.9.7 3.9 1.1 6.1 1.1 10.2 0 18.4-8.2 18.4-18.4 0-10.2-8.2-18.4-18.4-18.4z"/></svg>
