<?xml version="1.0" encoding="utf-8"?>
<!-- Generator: Adobe Illustrator 24.1.2, SVG Export Plug-In . SVG Version: 6.00 Build 0)  -->
<svg version="1.1" id="Layer_1" xmlns="http://www.w3.org/2000/svg" xmlns:xlink="http://www.w3.org/1999/xlink" x="0px" y="0px"
	 viewBox="0 0 229.6 201.3" style="enable-background:new 0 0 229.6 201.3;" xml:space="preserve">
<style type="text/css">
	.st0{fill:url(#SVGID_1_);}
	.st1{fill:url(#SVGID_2_);}
	.st2{fill:url(#SVGID_3_);}
	.st3{fill:url(#SVGID_4_);}
	.st4{fill:url(#SVGID_5_);}
	.st5{fill:url(#SVGID_6_);}
	.st6{fill:url(#SVGID_7_);}
	.st7{fill:url(#SVGID_8_);}
	.st8{fill:url(#SVGID_9_);}
</style>
<g>
	<g>
		<linearGradient id="SVGID_1_" gradientUnits="userSpaceOnUse" x1="82.3543" y1="154.7934" x2="153.6936" y2="58.3532">
			<stop  offset="0" style="stop-color:#FF7700"/>
			<stop  offset="0.7423" style="stop-color:#FF3554"/>
		</linearGradient>
		<path class="st0" d="M159.4,123.8c2.8,0,5.5,0.5,8,1.4c4-4.6,6.1-9.6,6.1-14.8c0-8.5-5.8-16.7-16.2-23.1
			c-11.2-6.8-26.2-10.6-42.1-10.6h0c-16,0-31,3.8-42.1,10.6c-10.5,6.4-16.2,14.6-16.2,23.1c0,5.2,2.1,10.2,6.1,14.8
			c2.5-0.9,5.2-1.4,8-1.4c6.3,0,12.2,2.4,16.6,6.9c3.1,3.1,5.2,6.9,6.2,11.1c6.7,1.6,13.9,2.4,21.4,2.4c7.4,0,14.6-0.8,21.4-2.4
			c1-4.1,3.1-8,6.2-11.1C147.2,126.2,153.1,123.8,159.4,123.8z M115.2,104.2c-7.2,0-13.1-5.9-13.1-13.1h26.2
			C128.3,98.3,122.4,104.2,115.2,104.2z"/>
	</g>
	<g>
		<linearGradient id="SVGID_2_" gradientUnits="userSpaceOnUse" x1="33.0471" y1="118.3196" x2="104.3864" y2="21.8794">
			<stop  offset="0" style="stop-color:#FF7700"/>
			<stop  offset="0.7423" style="stop-color:#FF3554"/>
		</linearGradient>
		<path class="st1" d="M69.9,81.1c1.3-0.8,2.6-1.5,3.9-2.2l-0.1,0c-3.3-2.5-7.2-3.7-11.1-3.7c-5.6,0-11.1,2.5-14.7,7.3l-1.5,2.1
			l10.4,7.8C60,88.2,64.4,84.4,69.9,81.1z"/>
	</g>
	<g>
		<linearGradient id="SVGID_3_" gradientUnits="userSpaceOnUse" x1="41.521" y1="124.588" x2="112.8603" y2="28.1478">
			<stop  offset="0" style="stop-color:#FF7700"/>
			<stop  offset="0.7423" style="stop-color:#FF3554"/>
		</linearGradient>
		<path class="st2" d="M56.9,128.5c-3.5-4.5-5.7-9.4-6.3-14.5c-0.2-1.2-0.3-2.4-0.3-3.6c0-6,2-11.7,5.7-16.9h-1.3
			c-10.2,0-18.4,8.3-18.4,18.4v2.6l13.7,0c-3.6,3-5.9,7.1-6.5,11.7c-0.7,4.9,0.6,9.7,3.6,13.6l1.1,1.5c1-4,3.1-7.6,6.1-10.6
			C55.2,129.8,56,129.1,56.9,128.5z"/>
	</g>
	<g>
		<linearGradient id="SVGID_4_" gradientUnits="userSpaceOnUse" x1="104.3141" y1="171.0377" x2="175.6534" y2="74.5975">
			<stop  offset="0" style="stop-color:#FF7700"/>
			<stop  offset="0.7423" style="stop-color:#FF3554"/>
		</linearGradient>
		<path class="st3" d="M173.6,92.4l10.4-7.8l-1.5-2.1c-3.6-4.8-9.1-7.3-14.7-7.3c-3.9,0-7.7,1.2-11.1,3.7l-0.1,0
			c1.3,0.7,2.7,1.4,3.9,2.2C166,84.4,170.4,88.2,173.6,92.4z"/>
	</g>
	<g>
		<linearGradient id="SVGID_5_" gradientUnits="userSpaceOnUse" x1="126.4632" y1="187.4219" x2="197.8025" y2="90.9818">
			<stop  offset="0" style="stop-color:#FF7700"/>
			<stop  offset="0.7423" style="stop-color:#FF3554"/>
		</linearGradient>
		<path class="st4" d="M194.1,111.9c0-10.2-8.3-18.4-18.4-18.4h-1.3c3.8,5.2,5.7,11,5.7,16.9c0,1.2-0.1,2.4-0.3,3.6
			c-0.7,5.1-2.9,10-6.3,14.5c0.9,0.7,1.8,1.4,2.6,2.2c3,3,5.1,6.6,6.1,10.6l1.1-1.5c3-3.9,4.3-8.8,3.6-13.6
			c-0.6-4.6-2.9-8.8-6.5-11.7l13.7,0V111.9z"/>
	</g>
	<g>
		<linearGradient id="SVGID_6_" gradientUnits="userSpaceOnUse" x1="41.092" y1="124.2706" x2="112.4313" y2="27.8304">
			<stop  offset="0" style="stop-color:#FF7700"/>
			<stop  offset="0.7423" style="stop-color:#FF3554"/>
		</linearGradient>
		<path class="st5" d="M93.1,72.4c10.2,0,18.4-8.3,18.4-18.4c0-10.2-8.3-18.4-18.4-18.4c-10.2,0-18.4,8.3-18.4,18.4
			C74.6,64.2,82.9,72.4,93.1,72.4z M93.1,43.9C93.1,43.9,93.1,43.9,93.1,43.9c-1.2,1.3-2,3.1-2,5.1c0,3.9,3.2,7.1,7.1,7.1
			c2,0,3.8-0.8,5.1-2.1c0,0,0,0.1,0,0.1c0,5.6-4.5,10.1-10.1,10.1C87.5,64.1,83,59.6,83,54C83,48.4,87.5,43.9,93.1,43.9z"/>
	</g>
	<g>
		<linearGradient id="SVGID_7_" gradientUnits="userSpaceOnUse" x1="69.7399" y1="145.4622" x2="141.0792" y2="49.022">
			<stop  offset="0" style="stop-color:#FF7700"/>
			<stop  offset="0.7423" style="stop-color:#FF3554"/>
		</linearGradient>
		<path class="st6" d="M137.4,72.4c10.2,0,18.4-8.3,18.4-18.4c0-10.2-8.3-18.4-18.4-18.4c-10.2,0-18.4,8.3-18.4,18.4
			C119,64.2,127.2,72.4,137.4,72.4z M137.4,43.9C137.4,43.9,137.4,43.9,137.4,43.9c-1.2,1.3-2,3.1-2,5.1c0,3.9,3.2,7.1,7.1,7.1
			c2,0,3.8-0.8,5.1-2.1c0,0,0,0.1,0,0.1c0,5.6-4.5,10.1-10.1,10.1c-5.6,0-10.1-4.5-10.1-10.1C127.3,48.4,131.8,43.9,137.4,43.9z"/>
	</g>
	<g>
		<linearGradient id="SVGID_8_" gradientUnits="userSpaceOnUse" x1="71.0978" y1="146.4667" x2="142.4371" y2="50.0265">
			<stop  offset="0" style="stop-color:#FF7700"/>
			<stop  offset="0.7423" style="stop-color:#FF3554"/>
		</linearGradient>
		<path class="st7" d="M71,128.9c-10.2,0-18.4,8.2-18.4,18.4c0,10.2,8.2,18.4,18.4,18.4c2.1,0,4.2-0.4,6.1-1.1
			c-0.2-0.2-0.4-0.3-0.5-0.5c-5.3-5.3-7.2-12.2-4-15.3c3.1-3.1,10-1.3,15.3,4c0.2,0.2,0.3,0.4,0.5,0.5c0.7-1.9,1.1-3.9,1.1-6.1
			C89.4,137.1,81.2,128.9,71,128.9z"/>
	</g>
	<g>
		<linearGradient id="SVGID_9_" gradientUnits="userSpaceOnUse" x1="128.5964" y1="188.9998" x2="199.9357" y2="92.5597">
			<stop  offset="0" style="stop-color:#FF7700"/>
			<stop  offset="0.7423" style="stop-color:#FF3554"/>
		</linearGradient>
		<path class="st8" d="M159.5,128.9c-10.2,0-18.4,8.2-18.4,18.4c0,2.1,0.4,4.2,1.1,6.1c0.2-0.2,0.3-0.4,0.5-0.5
			c5.3-5.3,12.2-7.2,15.3-4c3.1,3.1,1.3,10-4,15.3c-0.2,0.2-0.3,0.3-0.5,0.5c1.9,0.7,3.9,1.1,6.1,1.1c10.2,0,18.4-8.2,18.4-18.4
			C177.9,137.1,169.6,128.9,159.5,128.9z"/>
	</g>
</g>
</svg>
